<svg width="879" height="288" viewBox="0 0 879 288" fill="none" xmlns="http://www.w3.org/2000/svg">
<path d="M274.483 274.482C258.713 265.795 246.413 253.662 237.606 238.035C228.776 222.408 224.373 204.771 224.373 185.1C224.373 165.429 228.776 147.864 237.606 132.381C246.437 116.898 258.713 104.837 274.483 96.1501C290.254 87.4633 308.106 83.1318 328.064 83.1318C348.022 83.1318 365.946 87.4633 381.86 96.1501C397.774 104.837 410.122 116.922 418.953 132.381C427.783 147.864 432.187 165.429 432.187 185.1C432.187 204.771 427.783 222.408 418.953 238.035C410.122 253.662 397.75 265.795 381.86 274.482C365.946 283.168 348.022 287.5 328.064 287.5C308.13 287.5 290.254 283.168 274.483 274.482ZM368.651 228.702C378.917 217.574 384.062 203.025 384.062 185.1C384.062 167.176 378.917 152.627 368.651 141.499C358.384 130.371 344.864 124.795 328.088 124.795C311.6 124.795 298.151 130.443 287.741 141.714C277.331 152.985 272.114 167.464 272.114 185.1C272.114 202.737 277.331 217.215 287.741 228.487C298.151 239.758 311.6 245.406 328.088 245.406C344.864 245.406 358.384 239.83 368.651 228.702Z" fill="#EEEEEE"/>
<path d="M625.044 110.366C636.77 123.958 642.609 142.888 642.609 167.177V284.533H595.322V166.962C595.322 154.805 594.341 144.754 588.023 138.7C581.203 132.143 574.287 129.558 563.016 129.558C548.25 129.558 535.328 137.216 529.919 156.337C525.325 172.609 503.428 284.557 503.428 284.557H456.141L467.771 0.5H514.293C514.293 0.5 509.1 104.622 508.813 112.448C522.118 91.628 544.996 84.0181 568.52 84.5446C594.556 85.1428 613.318 96.7731 625.044 110.366Z" fill="#EEEEEE"/>
<path d="M720.575 274.482C704.805 265.795 692.505 253.662 683.698 238.035C674.868 222.408 670.464 204.771 670.464 185.1C670.464 165.429 674.868 147.864 683.698 132.381C692.528 116.898 704.805 104.837 720.575 96.1501C736.346 87.4633 754.198 83.1318 774.156 83.1318C794.114 83.1318 812.038 87.4633 827.952 96.1501C843.866 104.837 856.214 116.922 865.045 132.381C873.875 147.864 878.278 165.429 878.278 185.1C878.278 204.771 873.875 222.408 865.045 238.035C856.214 253.662 843.842 265.795 827.952 274.482C812.038 283.168 794.114 287.5 774.156 287.5C754.198 287.5 736.322 283.168 720.575 274.482ZM814.718 228.702C824.985 217.574 830.13 203.025 830.13 185.1C830.13 167.176 824.985 152.627 814.718 141.499C804.452 130.371 790.931 124.795 774.156 124.795C757.668 124.795 744.219 130.443 733.809 141.714C723.399 152.985 718.182 167.464 718.182 185.1C718.182 202.737 723.399 217.215 733.809 228.487C744.219 239.758 757.668 245.406 774.156 245.406C790.931 245.406 804.452 239.83 814.718 228.702Z" fill="#EEEEEE"/>
<path d="M198.192 167.177V284.533H150.905V166.962C150.905 154.805 149.9 144.754 143.606 138.7C138.007 133.315 132.359 130.635 124.27 129.821C122.571 129.654 120.848 129.654 119.149 129.845C106.945 131.162 95.3622 137.336 88.7334 154.614C86.7711 159.735 82.9422 170.001 81.8174 190.749C81.3388 199.268 81.4824 207.788 82.1285 216.283L87.2258 284.557H36.5406L17.7789 136.642L0.500977 0.5H46.9983L64.372 112.017C64.3959 111.993 64.4198 111.969 64.4198 111.945C64.4198 112.137 64.4198 112.304 64.3959 112.448C64.9224 111.634 65.4488 110.82 66.0232 110.055C84.3062 88.9239 101.417 85.071 122.236 84.5446C122.859 84.5446 123.481 84.5446 124.103 84.5685C150.14 85.1668 168.877 96.7731 180.603 110.366C192.329 123.958 198.192 142.888 198.192 167.177Z" fill="#EEEEEE"/>
</svg>
