<svg width="87" height="87" viewBox="0 0 87 87" fill="none" xmlns="http://www.w3.org/2000/svg">
<circle cx="43.5" cy="43.5" r="43.5" fill="#ADCA1B"/>
<path d="M39.3681 35.1851C39.3681 34.4018 39.6003 33.6362 40.0355 32.9849C40.4706 32.3336 41.0891 31.826 41.8128 31.5263C42.5364 31.2265 43.3327 31.1481 44.1009 31.3009C44.8691 31.4537 45.5748 31.8309 46.1286 32.3847C46.6825 32.9386 47.0597 33.6442 47.2125 34.4124C47.3653 35.1807 47.2868 35.9769 46.9871 36.7006C46.6873 37.4242 46.1797 38.0427 45.5284 38.4779C44.8772 38.913 44.1115 39.1453 43.3282 39.1452C42.2784 39.1437 41.272 38.726 40.5296 37.9837C39.7873 37.2413 39.3696 36.2349 39.3681 35.1851ZM48.2122 54.8032V47.3763C48.203 46.7655 48.4237 46.1736 48.8306 45.7179L56.5347 36.7827C56.6716 36.6241 56.776 36.4401 56.8418 36.2412C56.9076 36.0422 56.9336 35.8323 56.9183 35.6233C56.903 35.4143 56.8466 35.2104 56.7525 35.0232C56.6584 34.836 56.5283 34.6692 56.3697 34.5322C56.2111 34.3953 56.0271 34.291 55.8282 34.2251C55.6292 34.1593 55.4193 34.1333 55.2103 34.1487C55.0013 34.164 54.7974 34.2203 54.6102 34.3144C54.423 34.4086 54.2562 34.5386 54.1192 34.6972L48.2122 41.5472H38.4447L32.5377 34.6972C32.2601 34.3807 31.8686 34.1867 31.4485 34.1575C31.0285 34.1284 30.614 34.2664 30.2953 34.5416C29.9766 34.8167 29.7795 35.2067 29.7471 35.6265C29.7147 36.0463 29.8495 36.4619 30.1221 36.7827L37.8263 45.7179C38.2332 46.1736 38.4539 46.7655 38.4447 47.3763V54.8032L37.5347 67.0166C37.4682 67.8929 38.2529 68.6112 39.1293 68.6112C40.0085 68.6112 40.6186 67.8875 40.724 67.0166L42.208 54.8032H44.4516L45.9325 67.0167C46.0379 67.8875 46.6508 68.6112 47.5272 68.6112C48.4035 68.6112 49.1884 67.8929 49.1218 67.0166L48.2122 54.8032ZM53.4952 29.2033C53.6523 29.2938 53.8389 29.3184 54.0141 29.2716C54.1893 29.2248 54.3388 29.1105 54.4298 28.9536L56.5569 25.2676C56.6019 25.1901 56.6312 25.1044 56.643 25.0155C56.6549 24.9266 56.6492 24.8363 56.6261 24.7496C56.6031 24.663 56.5632 24.5817 56.5087 24.5105C56.4543 24.4392 56.3863 24.3794 56.3088 24.3344C56.2312 24.2894 56.1455 24.2602 56.0567 24.2483C55.9678 24.2364 55.8774 24.2422 55.7908 24.2652C55.7041 24.2882 55.6228 24.3281 55.5516 24.3826C55.4804 24.437 55.4205 24.505 55.3755 24.5826L53.2457 28.2685C53.1549 28.4256 53.1301 28.6123 53.1769 28.7875C53.2237 28.9628 53.3382 29.1124 53.4952 29.2033ZM48.5921 27.1731C48.7675 27.2196 48.9542 27.1947 49.1112 27.1037C49.2682 27.0127 49.3827 26.8631 49.4296 26.6878L51.2045 20.0685C51.2456 19.8951 51.2175 19.7125 51.1261 19.5595C51.0348 19.4064 50.8875 19.295 50.7154 19.2488C50.5433 19.2027 50.3599 19.2254 50.2043 19.3121C50.0486 19.3989 49.9329 19.5429 49.8817 19.7136L48.1068 26.3356C48.0836 26.4225 48.0777 26.5131 48.0895 26.6022C48.1013 26.6913 48.1306 26.7772 48.1757 26.855C48.2208 26.9328 48.2807 27.001 48.3522 27.0555C48.4236 27.1101 48.5051 27.15 48.5921 27.1731ZM43.3284 26.4798C43.5101 26.4798 43.6844 26.4076 43.8128 26.2791C43.9413 26.1506 44.0135 25.9764 44.0135 25.7947V21.5406C44.0135 21.3589 43.9413 21.1847 43.8128 21.0562C43.6844 20.9277 43.5101 20.8555 43.3284 20.8555C43.1467 20.8555 42.9725 20.9277 42.844 21.0562C42.7155 21.1847 42.6433 21.3589 42.6433 21.5406V25.7948C42.6433 25.9765 42.7155 26.1507 42.844 26.2792C42.9725 26.4076 43.1467 26.4798 43.3284 26.4798ZM58.6762 32.4363L63.9787 27.1311C64.1049 27.0023 64.1752 26.8289 64.1742 26.6486C64.1733 26.4683 64.1013 26.2956 63.9738 26.1681C63.8462 26.0406 63.6736 25.9686 63.4933 25.9677C63.313 25.9668 63.1396 26.0371 63.0108 26.1633L57.7055 31.4685C57.5772 31.5972 57.5053 31.7717 57.5055 31.9534C57.5058 32.1352 57.5782 32.3094 57.7069 32.4377C57.8357 32.5661 58.0101 32.638 58.1918 32.6378C58.3736 32.6375 58.5478 32.565 58.6762 32.4363ZM25.7404 48.5384H22.9199C22.8226 48.5428 22.731 48.5854 22.665 48.6571C22.599 48.7288 22.564 48.8237 22.5677 48.9211V56.3922C22.5645 56.4895 22.5996 56.5841 22.6655 56.6557C22.7314 56.7272 22.8228 56.7701 22.9199 56.7749H25.7404C25.838 56.7707 25.93 56.7281 25.9965 56.6565C26.0629 56.5849 26.0984 56.4899 26.0953 56.3922V48.9211C26.0984 48.8234 26.0629 48.7284 25.9965 48.6568C25.93 48.5852 25.838 48.5426 25.7404 48.5384ZM63.5788 46.4196C62.9751 45.8175 62.1573 45.4795 61.3048 45.4795C60.4522 45.4795 59.6344 45.8175 59.0307 46.4196L57.9685 47.4817L56.9063 46.4196C56.6078 46.121 56.2535 45.884 55.8635 45.7223C55.4735 45.5606 55.0554 45.4774 54.6332 45.4772C54.211 45.4771 53.7929 45.5601 53.4028 45.7216C53.0127 45.883 52.6582 46.1197 52.3595 46.4182C52.0609 46.7166 51.824 47.071 51.6623 47.461C51.5006 47.851 51.4173 48.2691 51.4172 48.6913C51.4169 49.544 51.7554 50.3618 52.3581 50.9649L57.9685 56.5753L63.5788 50.9649C64.1796 50.3611 64.5169 49.544 64.5169 48.6923C64.5169 47.8405 64.1796 47.0234 63.5788 46.4196ZM33.647 49.2622H31.75C31.6932 49.2619 31.6369 49.2505 31.5845 49.2285C31.5321 49.2064 31.4845 49.1743 31.4446 49.1338C31.4046 49.0934 31.3731 49.0454 31.3517 48.9927C31.3304 48.94 31.3196 48.8836 31.3202 48.8268C31.4977 44.9275 29.2902 44.9497 29.304 45.6181C29.3619 48.1529 29.0544 49.1401 27.4626 49.4369V55.8348C28.3503 56.0733 29.1848 56.3922 30.3579 56.4282C31.4616 56.4615 32.6764 56.5475 33.3253 55.8681C34.6509 54.4815 36.1956 49.2622 33.647 49.2622ZM32.2299 28.9535C32.2749 29.0311 32.3347 29.0991 32.4059 29.1535C32.4772 29.208 32.5584 29.2478 32.6451 29.2709C32.7318 29.2939 32.8221 29.2997 32.911 29.2878C32.9999 29.2759 33.0855 29.2467 33.1631 29.2017C33.2407 29.1567 33.3086 29.0969 33.3631 29.0256C33.4175 28.9544 33.4574 28.8731 33.4804 28.7865C33.5035 28.6998 33.5092 28.6094 33.4974 28.5206C33.4855 28.4317 33.4562 28.346 33.4112 28.2685L31.2842 24.5825C31.1933 24.4254 31.0438 24.3109 30.8685 24.2641C30.6932 24.2173 30.5065 24.242 30.3495 24.3329C30.1925 24.4237 30.0779 24.5732 30.0311 24.7485C29.9843 24.9238 30.0091 25.1105 30.0999 25.2675L32.2299 28.9535ZM27.9842 32.4369C28.113 32.5631 28.2864 32.6334 28.4667 32.6325C28.647 32.6316 28.8197 32.5596 28.9472 32.4321C29.0747 32.3046 29.1468 32.1319 29.1477 31.9516C29.1486 31.7713 29.0783 31.5979 28.9521 31.4691L23.6466 26.1637C23.5178 26.0375 23.3444 25.9672 23.1641 25.9681C22.9838 25.969 22.8111 26.041 22.6836 26.1685C22.5561 26.296 22.4841 26.4687 22.4832 26.649C22.4822 26.8293 22.5525 27.0027 22.6787 27.1315L27.9842 32.4369ZM37.2275 26.688C37.2754 26.8622 37.3901 27.0103 37.5467 27.1003C37.7033 27.1902 37.8891 27.2146 38.0637 27.1681C38.2382 27.1217 38.3873 27.0081 38.4784 26.8522C38.5696 26.6963 38.5955 26.5107 38.5504 26.3358L36.7752 19.7131C36.7282 19.538 36.6135 19.3888 36.4564 19.2983C36.2994 19.2078 36.1128 19.1834 35.9377 19.2305C35.7627 19.2775 35.6135 19.3922 35.523 19.5493C35.4325 19.7063 35.4081 19.8929 35.4551 20.068L37.2275 26.688Z" fill="white"/>
</svg>
