<svg width="87" height="87" viewBox="0 0 87 87" fill="none" xmlns="http://www.w3.org/2000/svg">
<circle cx="43.5" cy="43.5" r="43.5" fill="#24388B"/>
<g clip-path="url(#clip0_1258_1217)">
<path d="M44.5572 18.3434H43.0847V16.871C43.0847 16.6757 43.0072 16.4885 42.8691 16.3504C42.731 16.2123 42.5438 16.1348 42.3485 16.1348C42.1533 16.1348 41.966 16.2123 41.8279 16.3504C41.6899 16.4885 41.6123 16.6757 41.6123 16.871V18.3434H40.1399C39.9446 18.3434 39.7574 18.4209 39.6193 18.559C39.4813 18.6971 39.4037 18.8843 39.4037 19.0796C39.4037 19.2748 39.4813 19.4621 39.6193 19.6002C39.7574 19.7382 39.9446 19.8158 40.1399 19.8158H41.6123V21.2882C41.6123 21.4834 41.6899 21.6707 41.8279 21.8088C41.966 21.9468 42.1533 22.0244 42.3485 22.0244C42.5438 22.0244 42.731 21.9468 42.8691 21.8088C43.0072 21.6707 43.0847 21.4834 43.0847 21.2882V19.8158H44.5572C44.7524 19.8158 44.9397 19.7382 45.0777 19.6002C45.2158 19.4621 45.2934 19.2748 45.2934 19.0796C45.2934 18.8843 45.2158 18.6971 45.0777 18.559C44.9397 18.4209 44.7524 18.3434 44.5572 18.3434Z" fill="white"/>
<path d="M54.496 20.5527C54.3007 20.5527 54.1135 20.6303 53.9754 20.7684C53.8374 20.9064 53.7598 21.0937 53.7598 21.2889V22.7613H52.2873C52.0921 22.7613 51.9048 22.8389 51.7668 22.977C51.6287 23.115 51.5511 23.3023 51.5511 23.4975C51.5511 23.6928 51.6287 23.88 51.7668 24.0181C51.9048 24.1562 52.0921 24.2337 52.2873 24.2337H53.7598V25.7061C53.7598 25.9014 53.8373 26.0886 53.9754 26.2267C54.1135 26.3648 54.3007 26.4423 54.496 26.4423C54.6912 26.4423 54.8785 26.3648 55.0166 26.2267C55.1546 26.0886 55.2322 25.9014 55.2322 25.7061V24.2337H56.7046C56.8999 24.2337 57.0871 24.1562 57.2252 24.0181C57.3633 23.88 57.4408 23.6928 57.4408 23.4975C57.4408 23.3023 57.3633 23.115 57.2252 22.977C57.0871 22.8389 56.8999 22.7613 56.7046 22.7613H55.2322V21.2889C55.2322 21.0937 55.1546 20.9064 55.0165 20.7684C54.8785 20.6303 54.6912 20.5527 54.496 20.5527Z" fill="white"/>
<path d="M37.8862 36.0117H39.3637C39.0865 32.1766 37.206 28.6091 33.9903 25.88C33.9166 25.8174 33.8313 25.77 33.7393 25.7404C33.6473 25.7108 33.5504 25.6996 33.454 25.7075C33.3577 25.7154 33.2638 25.7422 33.1779 25.7863C33.0919 25.8305 33.0154 25.8911 32.9529 25.9648C32.8903 26.0385 32.8429 26.1238 32.8133 26.2158C32.7837 26.3078 32.7725 26.4048 32.7804 26.5011C32.7883 26.5974 32.8151 26.6913 32.8592 26.7773C32.9033 26.8633 32.964 26.9397 33.0377 27.0023C35.9153 29.4451 37.6093 32.614 37.8862 36.0117Z" fill="white"/>
<path d="M50.7067 25.88C47.491 28.6088 45.6105 32.1763 45.3333 36.0117H46.8108C47.0877 32.6137 48.7817 29.4448 51.6593 27.0023C51.733 26.9397 51.7936 26.8633 51.8378 26.7773C51.8819 26.6913 51.9087 26.5974 51.9166 26.5011C51.9245 26.4048 51.9133 26.3078 51.8837 26.2158C51.8541 26.1238 51.8067 26.0385 51.7441 25.9648C51.6816 25.8911 51.6051 25.8305 51.5191 25.7863C51.4331 25.7422 51.3393 25.7154 51.243 25.7075C51.1466 25.6996 51.0497 25.7108 50.9577 25.7404C50.8656 25.77 50.7804 25.8174 50.7067 25.88Z" fill="white"/>
<path d="M42.3485 23.4961C42.1533 23.4961 41.966 23.5737 41.828 23.7117C41.6899 23.8498 41.6123 24.037 41.6123 24.2323V36.0115H43.0847V24.2323C43.0847 24.037 43.0072 23.8498 42.8691 23.7117C42.731 23.5737 42.5438 23.4961 42.3485 23.4961Z" fill="white"/>
<path d="M50.4468 14.6621C50.2516 14.6621 50.0643 14.7397 49.9263 14.8777C49.7882 15.0158 49.7106 15.2031 49.7106 15.3983V16.1345H48.9744C48.7792 16.1345 48.5919 16.2121 48.4538 16.3501C48.3158 16.4882 48.2382 16.6755 48.2382 16.8707C48.2382 17.066 48.3158 17.2532 48.4538 17.3913C48.5919 17.5293 48.7792 17.6069 48.9744 17.6069H49.7106V18.3431C49.7106 18.5384 49.7882 18.7256 49.9263 18.8637C50.0643 19.0018 50.2516 19.0793 50.4468 19.0793C50.6421 19.0793 50.8293 19.0018 50.9674 18.8637C51.1055 18.7256 51.183 18.5384 51.183 18.3431V17.6069H51.9192C52.1145 17.6069 52.3018 17.5293 52.4398 17.3913C52.5779 17.2532 52.6554 17.066 52.6554 16.8707C52.6554 16.6755 52.5779 16.4882 52.4398 16.3501C52.3018 16.2121 52.1145 16.1345 51.9192 16.1345H51.183V15.3983C51.183 15.2031 51.1055 15.0158 50.9674 14.8777C50.8293 14.7397 50.6421 14.6621 50.4468 14.6621Z" fill="white"/>
<path d="M34.6184 14.6621C34.4231 14.6621 34.2359 14.7397 34.0978 14.8777C33.9597 15.0158 33.8822 15.2031 33.8822 15.3983V16.1345H33.1459C32.9507 16.1345 32.7634 16.2121 32.6254 16.3501C32.4873 16.4882 32.4097 16.6755 32.4097 16.8707C32.4097 17.066 32.4873 17.2532 32.6254 17.3913C32.7634 17.5293 32.9507 17.6069 33.1459 17.6069H33.8822V18.3431C33.8822 18.5384 33.9597 18.7256 34.0978 18.8637C34.2359 19.0018 34.4231 19.0793 34.6184 19.0793C34.8136 19.0793 35.0009 19.0018 35.1389 18.8637C35.277 18.7256 35.3546 18.5384 35.3546 18.3431V17.6069H36.0908C36.286 17.6069 36.4733 17.5293 36.6113 17.3913C36.7494 17.2532 36.827 17.066 36.827 16.8707C36.827 16.6755 36.7494 16.4882 36.6113 16.3501C36.4733 16.2121 36.286 16.1345 36.0908 16.1345H35.3546V15.3983C35.3546 15.2031 35.277 15.0158 35.1389 14.8777C35.0009 14.7397 34.8136 14.6621 34.6184 14.6621Z" fill="white"/>
<path d="M30.2011 26.4424C30.3963 26.4423 30.5836 26.3648 30.7216 26.2267C30.8597 26.0887 30.9373 25.9014 30.9373 25.7062V24.2337H32.4097C32.605 24.2337 32.7922 24.1562 32.9303 24.0181C33.0683 23.8801 33.1459 23.6928 33.1459 23.4975C33.1459 23.3023 33.0683 23.115 32.9303 22.977C32.7922 22.8389 32.605 22.7613 32.4097 22.7613H30.9373V21.2889C30.9373 21.0937 30.8597 20.9064 30.7216 20.7684C30.5836 20.6303 30.3963 20.5527 30.2011 20.5527C30.0058 20.5527 29.8185 20.6303 29.6805 20.7684C29.5424 20.9064 29.4649 21.0937 29.4649 21.2889V22.7613H27.9924C27.7972 22.7613 27.6099 22.8389 27.4719 22.977C27.3338 23.115 27.2562 23.3023 27.2562 23.4975C27.2562 23.6928 27.3338 23.8801 27.4719 24.0181C27.6099 24.1562 27.7972 24.2337 27.9924 24.2337H29.4649V25.7062C29.4649 25.9014 29.5424 26.0887 29.6805 26.2267C29.8186 26.3648 30.0058 26.4423 30.2011 26.4424Z" fill="white"/>
<path d="M66.0989 44.8633L60.8097 47.339L62.0344 49.9822L67.3237 47.5065C66.9167 46.6283 66.5058 45.7415 66.0989 44.8633Z" fill="white"/>
<path d="M61.0267 33.9149C60.8609 33.5642 60.5636 33.2929 60.1992 33.1598C59.8347 33.0267 59.4326 33.0426 59.0798 33.2039L56.443 34.4412C56.0924 34.6075 55.8216 34.9054 55.6894 35.2702C55.5572 35.635 55.5743 36.0373 55.737 36.3896L60.1906 46.0014L65.4799 43.5258C63.1029 38.3958 61.0276 33.9168 61.0267 33.9149Z" fill="white"/>
<path d="M67.9427 48.8438L62.6534 51.3193L67.1068 60.9305C67.1874 61.106 67.302 61.2636 67.4441 61.3943C67.5861 61.5249 67.7528 61.626 67.9343 61.6915C68.3006 61.8155 68.7 61.7976 69.0538 61.6416L71.6905 60.4043C72.0411 60.238 72.3119 59.94 72.4441 59.5752C72.5763 59.2104 72.5592 58.8082 72.3966 58.4559C72.3966 58.4559 70.3204 53.9753 67.9427 48.8438Z" fill="white"/>
<path d="M40.8759 37.4824H43.8207V61.7771H40.8759V37.4824Z" fill="white"/>
<path d="M25.4157 38.9548V59.5684C25.4164 60.154 25.6493 60.7154 26.0633 61.1295C26.4774 61.5435 27.0388 61.7764 27.6243 61.7771H39.4035V37.4824H26.8881C26.4977 37.4828 26.1235 37.6381 25.8474 37.9141C25.5714 38.1901 25.4161 38.5644 25.4157 38.9548Z" fill="white"/>
<path d="M59.1636 47.2874L57.8089 44.3637L54.6204 37.4824H45.2931V61.7771H57.0727C57.6583 61.7764 58.2197 61.5435 58.6337 61.1295C59.0478 60.7154 59.2807 60.154 59.2813 59.5684V47.5415L59.1638 47.2878L59.1636 47.2874Z" fill="white"/>
</g>
<defs>
<clipPath id="clip0_1258_1217">
<rect width="47.1169" height="47.1169" fill="white" transform="translate(25.4157 14.6621)"/>
</clipPath>
</defs>
</svg>
