<svg width="87" height="87" viewBox="0 0 87 87" fill="none" xmlns="http://www.w3.org/2000/svg">
<circle cx="43.5" cy="43.5" r="43.5" fill="#24388B"/>
<path fill-rule="evenodd" clip-rule="evenodd" d="M29.4683 51.5978C29.5599 51.7505 29.6109 51.9236 29.6109 52.1069V63.3076H46.5748C47.6847 63.3076 48.764 62.9308 49.6397 62.2486C52.3889 60.0899 59.649 54.3878 62.0419 52.504C62.7852 51.9236 63.2129 51.0378 63.2129 50.0908C63.2129 49.266 62.887 48.482 62.3168 47.9117C61.7466 47.3415 60.9625 47.0157 60.1479 47.0157H59.8017C59.2213 47.0157 58.641 47.1379 58.1115 47.3823L49.9452 51.0887C49.9655 51.2516 49.9757 51.5978 49.9757 51.5978C49.9757 52.8095 49.4971 53.9805 48.6316 54.8358C47.7763 55.6911 46.6053 56.1799 45.3936 56.1799H40.8115C40.2515 56.1799 39.7933 55.7217 39.7933 55.1616C39.7933 54.6016 40.2515 54.1434 40.8115 54.1434H45.3936C46.0657 54.1434 46.7173 53.8787 47.1959 53.4001C47.6745 52.9215 47.9392 52.28 47.9392 51.5978C47.9392 50.1926 46.7988 49.0522 45.3936 49.0522H37.7568C35.4657 49.0522 31.5251 50.6712 29.4683 51.5978ZM27.5744 52.1069C27.5744 51.5469 27.1162 51.0887 26.5561 51.0887H23.5014C22.9414 51.0887 22.4832 51.5469 22.4832 52.1069V62.2893C22.4832 62.8494 22.9414 63.3076 23.5014 63.3076H26.5561C27.1162 63.3076 27.5744 62.8494 27.5744 62.2893V52.1069ZM38.775 47.0157V39.888H30.6291C30.0691 39.888 29.6109 40.3462 29.6109 40.9062V49.6224L36.3822 47.087C36.4942 47.0462 36.6164 47.0259 36.7386 47.0259H38.775V47.0157ZM46.921 47.2804C47.9799 47.6572 48.8658 48.4107 49.4055 49.378L56.0852 46.2113V40.9062C56.0852 40.3462 55.627 39.888 55.0669 39.888H46.921V47.2804ZM44.8845 47.0157H40.8115V39.888H44.8845V47.0157ZM37.7568 37.8515V29.7056C37.7568 29.0437 37.9706 28.4328 38.327 27.9237C37.7262 27.0072 36.9524 25.989 36.0971 25.1846C35.0686 24.2172 33.8977 23.5859 32.7572 23.5859C30.1709 23.5859 29.1119 25.9992 28.7555 27.4145C28.4399 28.7077 28.613 29.675 29.0101 30.4183C29.061 30.5202 29.1221 30.6118 29.1832 30.7136H27.5744C27.0143 30.7136 26.5561 31.1718 26.5561 31.7319V36.8231C26.5561 37.3831 27.0143 37.8413 27.5744 37.8413H37.7568V37.8515ZM47.369 27.9237C47.7254 28.4226 47.9392 29.0437 47.9392 29.7056V37.8515H58.1216C58.6817 37.8515 59.1399 37.3933 59.1399 36.8333V31.7421C59.1399 31.182 58.6817 30.7238 58.1216 30.7238H56.5128C56.5739 30.6322 56.635 30.5304 56.6859 30.4285C57.083 29.6852 57.2561 28.7077 56.9405 27.4247C56.5943 26.0094 55.5353 23.5961 52.9388 23.5961C51.7882 23.5961 50.6274 24.2274 49.599 25.1948C48.7436 25.989 47.9799 27.0174 47.369 27.9338V27.9237ZM45.9027 29.7056V37.8515H39.7933V29.7056C39.7933 29.1354 40.2515 28.6771 40.8217 28.6771H44.8743C45.4445 28.6771 45.9027 29.1354 45.9027 29.7056ZM52.3075 30.7238L53.5497 29.3797C53.9265 28.9623 53.9061 28.3208 53.4988 27.944C53.0813 27.5673 52.4399 27.5876 52.0631 27.9949L49.5379 30.7238H52.3075ZM36.1683 30.7238L33.6431 27.9949C33.2663 27.5876 32.6147 27.5571 32.2074 27.944C31.8001 28.3309 31.7695 28.9724 32.1565 29.3797L33.3987 30.7238H36.1683Z" fill="white"/>
</svg>
