<svg width="87" height="87" viewBox="0 0 87 87" fill="none" xmlns="http://www.w3.org/2000/svg">
<circle cx="43.5" cy="43.5" r="43.5" fill="#ADCA1B"/>
<path fill-rule="evenodd" clip-rule="evenodd" d="M38.8626 25.2149C38.8658 26.1124 38.1409 26.8425 37.2434 26.8457C33.6463 26.8585 32.1432 26.9886 31.0367 27.5524C29.8136 28.1755 28.8193 29.1699 28.1961 30.393C27.6323 31.4995 27.5022 33.0025 27.4894 36.5997C27.4862 37.4971 26.7561 38.2221 25.8587 38.2189C24.9612 38.2157 24.2363 37.4856 24.2395 36.5881C24.2515 33.1975 24.3176 30.8462 25.3003 28.9175C26.2351 27.0829 27.7266 25.5914 29.5612 24.6566C31.4899 23.6738 33.8413 23.6078 37.2319 23.5957C38.1293 23.5925 38.8594 24.3175 38.8626 25.2149ZM48.6126 25.2149C48.6158 24.3175 49.346 23.5925 50.2434 23.5957C53.634 23.6078 55.9854 23.6738 57.9141 24.6566C59.7486 25.5914 61.2401 27.0829 62.175 28.9175C63.1576 30.8462 63.2238 33.1975 63.2358 36.5881C63.239 37.4856 62.5141 38.2157 61.6166 38.2189C60.7192 38.2221 59.9891 37.4971 59.9858 36.5997C59.973 33.0025 59.843 31.4995 59.2792 30.393C58.6561 29.1699 57.6616 28.1755 56.4386 27.5524C55.3321 26.9886 53.829 26.8585 50.2319 26.8457C49.3344 26.8425 48.6095 26.1124 48.6126 25.2149ZM30.7374 34.9691C30.7374 32.2767 32.92 30.0941 35.6124 30.0941H37.2374C39.9298 30.0941 42.1124 32.2767 42.1124 34.9691V36.5941C42.1124 39.2865 39.9298 41.4691 37.2374 41.4691H35.6124C32.92 41.4691 30.7374 39.2865 30.7374 36.5941V34.9691ZM35.6124 33.3441C34.715 33.3441 33.9874 34.0717 33.9874 34.9691V36.5941C33.9874 37.4916 34.715 38.2191 35.6124 38.2191H37.2374C38.1349 38.2191 38.8624 37.4916 38.8624 36.5941V34.9691C38.8624 34.0717 38.1349 33.3441 37.2374 33.3441H35.6124ZM45.3624 34.9691C45.3624 32.2767 47.545 30.0941 50.2374 30.0941H51.8624C54.5549 30.0941 56.7374 32.2767 56.7374 34.9691V36.5941C56.7374 39.2865 54.5549 41.4691 51.8624 41.4691H50.2374C47.545 41.4691 45.3624 39.2865 45.3624 36.5941V34.9691ZM50.2374 33.3441C49.3399 33.3441 48.6124 34.0717 48.6124 34.9691V36.5941C48.6124 37.4916 49.3399 38.2191 50.2374 38.2191H51.8624C52.7599 38.2191 53.4874 37.4916 53.4874 36.5941V34.9691C53.4874 34.0717 52.7599 33.3441 51.8624 33.3441H50.2374ZM30.7374 49.5941C30.7374 46.9017 32.92 44.7191 35.6124 44.7191H37.2374C39.9298 44.7191 42.1124 46.9017 42.1124 49.5941V51.2191C42.1124 53.9116 39.9298 56.0941 37.2374 56.0941H35.6124C32.92 56.0941 30.7374 53.9116 30.7374 51.2191V49.5941ZM35.6124 47.9691C34.715 47.9691 33.9874 48.6966 33.9874 49.5941V51.2191C33.9874 52.1166 34.715 52.8441 35.6124 52.8441H37.2374C38.1349 52.8441 38.8624 52.1166 38.8624 51.2191V49.5941C38.8624 48.6966 38.1349 47.9691 37.2374 47.9691H35.6124ZM45.3624 47.1566C45.3624 45.8105 46.4538 44.7191 47.7999 44.7191C49.1461 44.7191 50.2374 45.8105 50.2374 47.1566C50.2374 48.5028 49.1461 49.5941 47.7999 49.5941C46.4538 49.5941 45.3624 48.5028 45.3624 47.1566ZM51.8624 47.1566C51.8624 45.8105 52.9538 44.7191 54.2999 44.7191C55.6461 44.7191 56.7374 45.8105 56.7374 47.1566C56.7374 48.5028 55.6461 49.5941 54.2999 49.5941C52.9538 49.5941 51.8624 48.5028 51.8624 47.1566ZM25.8592 47.8368C26.7567 47.8341 27.4864 48.5595 27.489 49.457C27.4998 53.1457 27.6239 54.6719 28.1961 55.7948C28.8193 57.0179 29.8136 58.0123 31.0367 58.6355C32.1432 59.1992 33.6463 59.3293 37.2434 59.3422C38.1409 59.3453 38.8658 60.0754 38.8626 60.9729C38.8594 61.8703 38.1293 62.5953 37.2319 62.592C33.8413 62.58 31.4899 62.514 29.5612 61.5312C27.7266 60.5965 26.2351 59.1049 25.3003 57.2703C24.3066 55.32 24.2492 52.9332 24.239 49.4666C24.2364 48.5691 24.9618 47.8394 25.8592 47.8368ZM61.616 47.8368C62.5135 47.8394 63.2389 48.5691 63.2363 49.4666C63.226 52.9332 63.1687 55.32 62.175 57.2703C61.2401 59.1049 59.7486 60.5965 57.9141 61.5312C55.9854 62.514 53.6342 62.58 50.2436 62.592C49.3461 62.5953 48.616 61.8703 48.6129 60.9729C48.6097 60.0754 49.3346 59.3453 50.2321 59.3422C53.829 59.3293 55.3321 59.1992 56.4386 58.6355C57.6616 58.0123 58.6561 57.0179 59.2792 55.7948C59.8514 54.6719 59.9754 53.1457 59.9863 49.457C59.9889 48.5595 60.7185 47.8341 61.616 47.8368ZM45.3624 53.6566C45.3624 52.3105 46.4538 51.2191 47.7999 51.2191C49.1461 51.2191 50.2374 52.3105 50.2374 53.6566C50.2374 55.0028 49.1461 56.0941 47.7999 56.0941C46.4538 56.0941 45.3624 55.0028 45.3624 53.6566ZM51.8624 53.6566C51.8624 52.3105 52.9538 51.2191 54.2999 51.2191C55.6461 51.2191 56.7374 52.3105 56.7374 53.6566C56.7374 55.0028 55.6461 56.0941 54.2999 56.0941C52.9538 56.0941 51.8624 55.0028 51.8624 53.6566Z" fill="white"/>
</svg>
