<svg width="204" height="204" viewBox="0 0 204 204" fill="none" xmlns="http://www.w3.org/2000/svg">
<path d="M102 2C46.8596 2 2 46.8597 2 102C2 157.141 46.8596 202 102 202C157.14 202 202 157.14 202 102C202 46.8604 157.14 2 102 2ZM102 192.032C52.3555 192.032 11.9672 151.644 11.9672 102C11.9672 52.3563 52.3555 11.9672 102 11.9672C151.645 11.9672 192.033 52.3557 192.033 102C192.033 151.644 151.644 192.032 102 192.032Z" fill="black" stroke="black" stroke-width="2.4"/>
<path d="M97.0164 97.0168H57.25V106.984H106.984V31.1588H97.0164V97.0168Z" fill="black" stroke="black" stroke-width="2.4"/>
</svg>
