<svg width="118" height="200" viewBox="0 0 118 200" fill="none" xmlns="http://www.w3.org/2000/svg">
<path d="M69.6629 200H42.3221C32.9588 200 25.0936 192.135 25.0936 182.772V121.348H17.2285C7.86517 121.348 0 113.483 0 104.12V80.8989C0 71.5356 7.86517 63.6704 17.2285 63.6704H25.4682V56.1798C25.4682 21.7228 45.3183 0 77.5281 0C88.764 0 98.5019 0.749063 102.622 1.12359C111.236 2.24719 117.603 9.73783 117.603 18.3521V41.573C117.603 50.9363 109.738 58.8015 100.375 58.8015H87.6404V63.6704H99.6255C108.989 63.6704 116.854 71.5356 116.854 80.8989C116.854 82.0225 116.854 82.7715 116.479 83.8951L112.734 106.367C111.61 114.607 104.12 120.974 95.5056 120.974H87.6404V182.397C87.2659 192.135 79.4007 200 69.6629 200ZM17.2285 79.4007C16.4794 79.4007 15.7303 80.1498 15.7303 80.8989V104.12C15.7303 104.869 16.4794 105.618 17.2285 105.618H33.3333C37.8277 105.618 41.1985 108.989 41.1985 113.483V182.397C41.1985 183.146 41.9476 183.895 42.6966 183.895H70.0375C70.7865 183.895 71.5356 183.146 71.5356 182.397V113.483C71.5356 108.989 74.9064 105.618 79.4007 105.618H95.1311C95.8801 105.618 96.6292 104.869 96.6292 104.12L100.375 80.8989C100.375 80.1498 99.6255 79.4007 98.8764 79.4007H79.0262C74.5318 79.4007 71.161 76.03 71.161 71.5356V55.8052C71.161 52.4345 71.5356 50.1873 72.2846 48.3146C73.0337 46.4419 74.1573 45.3183 76.03 44.5693C77.9026 43.4457 80.5243 43.0712 84.2697 43.0712H100C100.749 43.0712 101.498 42.3221 101.498 41.573V18.3521C101.498 17.603 100.749 16.8539 100 16.8539C97.0037 16.4794 87.6404 15.7303 77.1536 15.7303C45.6929 15.7303 40.824 41.1985 40.824 56.1798V71.5356C40.824 76.03 37.4532 79.4007 32.9588 79.4007H17.2285Z" fill="black"/>
</svg>
