<svg width="477" height="156" viewBox="0 0 477 156" fill="none" xmlns="http://www.w3.org/2000/svg">
<path d="M148.887 148.887C140.317 144.166 133.633 137.573 128.847 129.081C124.049 120.589 121.656 111.005 121.656 100.315C121.656 89.6258 124.049 80.0806 128.847 71.6668C133.646 63.253 140.317 56.6988 148.887 51.9782C157.457 47.2576 167.158 44.9038 178.004 44.9038C188.849 44.9038 198.59 47.2576 207.238 51.9782C215.885 56.6988 222.596 63.266 227.394 71.6668C232.193 80.0806 234.586 89.6258 234.586 100.315C234.586 111.005 232.193 120.589 227.394 129.081C222.596 137.573 215.872 144.166 207.238 148.887C198.59 153.607 188.849 155.961 178.004 155.961C167.171 155.961 157.457 153.607 148.887 148.887ZM200.059 124.009C205.638 117.962 208.434 110.056 208.434 100.315C208.434 90.5751 205.638 82.6685 200.059 76.6214C194.48 70.5744 187.133 67.5444 178.017 67.5444C169.057 67.5444 161.748 70.6134 156.091 76.7385C150.435 82.8635 147.6 90.7312 147.6 100.315C147.6 109.9 150.435 117.767 156.091 123.892C161.748 130.017 169.057 133.086 178.017 133.086C187.133 133.086 194.48 130.056 200.059 124.009Z" fill="white"/>
<path d="M339.388 59.7031C345.76 67.0895 348.933 77.376 348.933 90.5754V154.349H323.236V90.4584C323.236 83.8522 322.703 78.3903 319.27 75.1002C315.564 71.537 311.805 70.1326 305.68 70.1326C297.657 70.1326 290.634 74.294 287.695 84.6844C285.199 93.5274 273.3 154.362 273.3 154.362H247.603L253.923 6.10352e-05H279.204C279.204 6.10352e-05 276.382 56.582 276.226 60.8344C283.456 49.5207 295.888 45.3853 308.671 45.6714C322.82 45.9965 333.016 52.3166 339.388 59.7031Z" fill="white"/>
<path d="M391.301 148.887C382.731 144.166 376.047 137.573 371.262 129.081C366.463 120.589 364.07 111.005 364.07 100.315C364.07 89.6258 366.463 80.0806 371.262 71.6668C376.06 63.253 382.731 56.6988 391.301 51.9782C399.871 47.2576 409.572 44.9038 420.418 44.9038C431.264 44.9038 441.004 47.2576 449.652 51.9782C458.3 56.6988 465.01 63.266 469.809 71.6668C474.607 80.0806 477 89.6258 477 100.315C477 111.005 474.607 120.589 469.809 129.081C465.01 137.573 458.287 144.166 449.652 148.887C441.004 153.607 431.264 155.961 420.418 155.961C409.572 155.961 399.858 153.607 391.301 148.887ZM442.46 124.009C448.039 117.962 450.835 110.056 450.835 100.315C450.835 90.5751 448.039 82.6685 442.46 76.6214C436.882 70.5744 429.534 67.5444 420.418 67.5444C411.458 67.5444 404.15 70.6134 398.493 76.7385C392.836 82.8635 390.001 90.7312 390.001 100.315C390.001 109.9 392.836 117.767 398.493 123.892C404.15 130.017 411.458 133.086 420.418 133.086C429.534 133.086 436.882 130.056 442.46 124.009Z" fill="white"/>
<path d="M107.429 90.5754V154.349H81.7325V90.4584C81.7325 83.8522 81.1863 78.3903 77.7662 75.1002C74.7232 72.1743 71.6541 70.7178 67.2587 70.2756C66.3354 70.1846 65.399 70.1846 64.4757 70.2886C57.8435 71.0039 51.5494 74.359 47.9472 83.7481C46.8808 86.5311 44.8001 92.1099 44.1889 103.385C43.9288 108.014 44.0069 112.644 44.358 117.26L47.1279 154.362H19.5847L9.38927 73.9819L0.00012207 6.10352e-05H25.2676L34.7088 60.6004C34.7218 60.5874 34.7348 60.5744 34.7348 60.5614C34.7348 60.6654 34.7348 60.7564 34.7218 60.8344C35.0079 60.3923 35.2939 59.9502 35.6061 59.534C45.5414 48.0512 54.8395 45.9575 66.1533 45.6714C66.4914 45.6714 66.8295 45.6714 67.1676 45.6844C81.3164 46.0095 91.4988 52.3166 97.8709 59.7031C104.243 67.0895 107.429 77.376 107.429 90.5754Z" fill="white"/>
</svg>
