<svg width="200" height="200" viewBox="0 0 200 200" fill="none" xmlns="http://www.w3.org/2000/svg">
<g clip-path="url(#clip0_2541_46)">
<path d="M101.967 200H99.9766C84.3029 200 69.8115 199.637 55.7298 198.829C43.2918 198.234 31.359 193.728 21.6317 185.953C12.4096 178.311 5.94944 167.854 3.24242 156.186C0.982536 145.872 -0.0275011 135.324 0.23411 124.769C0.12876 117.476 0 108.849 0 100.023C0 91.1975 0.12876 82.5354 0.23411 75.2312C-0.0273874 64.6759 0.982648 54.1275 3.24242 43.8136C5.96592 32.1759 12.4247 21.7498 21.6317 14.1285C31.3561 6.34578 43.2891 1.83146 55.7298 1.22906C69.8232 0.362857 84.2795 -0.0117188 100.023 -0.0117188C115.767 -0.0117188 130.188 0.351151 144.27 1.15883C156.708 1.75453 168.641 6.26055 178.368 14.0349C187.575 21.6562 194.034 32.0822 196.758 43.72C199.021 54.0334 200.035 64.5818 199.778 75.1375C199.883 82.4418 199.988 91.0921 200 99.8946C200 108.697 199.871 117.348 199.778 124.652C200.036 135.208 199.022 145.756 196.758 156.069C194.034 167.707 187.575 178.133 178.368 185.754C168.641 193.529 156.708 198.035 144.27 198.63C130.785 199.45 116.926 199.801 101.978 199.801L101.967 200ZM99.9766 184.373C115.404 184.373 129.556 184.022 143.287 183.203C152.46 182.845 161.278 179.564 168.454 173.838C175.049 168.312 179.657 160.782 181.576 152.394C183.501 143.269 184.354 133.951 184.116 124.628C184.209 117.371 184.315 108.791 184.338 100.047C184.361 91.3028 184.209 82.7461 184.116 75.4653C184.353 66.1428 183.501 56.8245 181.576 47.6999C179.657 39.3119 175.049 31.7812 168.454 26.2554C161.278 20.5307 152.46 17.2496 143.287 16.891C129.533 16.0482 115.369 15.7205 99.9766 15.7205C84.5839 15.7205 70.3968 16.0716 56.6663 16.891C47.4935 17.2496 38.6755 20.5307 31.4995 26.2554C24.9125 31.7768 20.309 39.2985 18.3893 47.6764C16.464 56.801 15.6115 66.1194 15.8492 75.4419C15.7556 82.6993 15.6502 91.2911 15.6268 100.023C15.6034 108.756 15.7556 117.301 15.8492 124.605C15.6114 133.927 16.4638 143.246 18.3893 152.37C20.3074 160.758 24.9155 168.289 31.5112 173.815C38.6872 179.539 47.5052 182.821 56.678 183.179C70.4319 184.022 84.5956 184.408 99.9766 184.373ZM99.602 148.824C89.9456 148.824 80.5061 145.96 72.4771 140.595C64.4481 135.231 58.1902 127.605 54.4949 118.684C50.7995 109.763 49.8327 99.9458 51.7165 90.475C53.6004 81.0041 58.2504 72.3046 65.0785 65.4765C71.9066 58.6484 80.6061 53.9984 90.077 52.1145C99.5478 50.2307 109.365 51.1975 118.286 54.8929C127.207 58.5882 134.833 64.8461 140.197 72.875C145.562 80.904 148.426 90.3436 148.426 100C148.413 112.946 143.266 125.359 134.113 134.514C124.959 143.669 112.548 148.808 99.602 148.824ZM99.602 66.7915C93.034 66.7915 86.6135 68.7392 81.1524 72.3881C75.6913 76.0371 71.4348 81.2236 68.9214 87.2917C66.4079 93.3597 65.7503 100.037 67.0316 106.479C68.313 112.92 71.4758 118.838 76.1201 123.482C80.7644 128.126 86.6815 131.289 93.1234 132.57C99.5652 133.852 106.242 133.194 112.31 130.681C118.378 128.167 123.565 123.911 127.214 118.45C130.863 112.989 132.81 106.568 132.81 100C132.798 91.1974 129.295 82.7591 123.07 76.5359C116.844 70.3126 108.405 66.8125 99.602 66.8032V66.7915ZM153.904 35.5379C151.589 35.5379 149.326 36.2244 147.401 37.5106C145.476 38.7968 143.975 40.625 143.089 42.7638C142.203 44.9027 141.972 47.2563 142.423 49.527C142.875 51.7976 143.99 53.8833 145.627 55.5204C147.264 57.1574 149.349 58.2723 151.62 58.7239C153.891 59.1756 156.244 58.9438 158.383 58.0578C160.522 57.1718 162.35 55.6715 163.637 53.7466C164.923 51.8216 165.609 49.5585 165.609 47.2433C165.606 44.1409 164.372 41.1666 162.177 38.9739C159.982 36.7812 157.006 35.5496 153.904 35.5496V35.5379Z" fill="black"/>
</g>
<defs>
<clipPath id="clip0_2541_46">
<rect width="199.988" height="200" fill="white"/>
</clipPath>
</defs>
</svg>
