<svg width="150" height="200" viewBox="0 0 150 200" fill="none" xmlns="http://www.w3.org/2000/svg">
<path d="M69.8834 197.244C71.046 198.969 72.9898 200 75.0648 200C77.1462 200 79.09 198.962 80.2463 197.244L139.223 109.628C146.273 98.3843 150.005 85.4714 150.005 72.2773C150.005 32.426 116.36 0 75.0023 0C33.6448 0 0 32.426 0 72.2773C0 85.4902 3.74387 98.4281 10.9316 109.853L69.8834 197.244ZM75.0086 12.4941C109.472 12.4941 137.511 39.3137 137.511 72.271C137.511 83.1088 134.442 93.7279 128.748 102.809L75.0586 182.562L21.4069 103.022C15.5817 93.7592 12.5066 83.1276 12.5066 72.271C12.5066 39.3137 40.545 12.4941 75.0086 12.4941Z" fill="black"/>
<path d="M75.0074 106.385C94.6017 106.385 110.546 90.9654 110.546 72.0085C110.546 53.0517 94.608 37.6324 75.0074 37.6324C55.4068 37.6324 39.4688 53.0517 39.4688 72.0085C39.4688 90.9654 55.413 106.385 75.0074 106.385ZM75.0074 50.1328C87.7078 50.1328 98.0456 59.9456 98.0456 72.0085C98.0456 84.0714 87.714 93.8842 75.0074 93.8842C62.3007 93.8842 51.9691 84.0714 51.9691 72.0085C51.9691 59.9456 62.307 50.1328 75.0074 50.1328Z" fill="black"/>
</svg>
