<svg width="123" height="204" viewBox="0 0 123 204" fill="none" xmlns="http://www.w3.org/2000/svg">
<path d="M102 2H20.6441C10.3525 2.01356 2.01356 10.3525 2 20.6441V183.356C2.01356 193.647 10.3525 201.986 20.6441 202H102C112.292 201.986 120.631 193.647 120.644 183.356V20.6441C120.631 10.3525 112.292 2.01356 102 2ZM110.475 183.356C110.468 188.034 106.678 191.824 102 191.831H20.6441C15.9661 191.824 12.1763 188.034 12.1695 183.356V20.6441C12.1763 15.9661 15.9661 12.1763 20.6441 12.1695H102C106.678 12.1763 110.468 15.9661 110.475 20.6441V183.356ZM56.5763 165.044C55.322 166.217 54.5424 167.878 54.5424 169.722C54.5424 169.749 54.5424 169.776 54.5424 169.803C54.5424 169.831 54.5424 169.858 54.5424 169.892C54.5424 171.769 55.322 173.464 56.5763 174.664C57.7695 175.919 59.4508 176.705 61.322 176.705C63.1932 176.705 64.8746 175.925 66.061 174.671C67.322 173.464 68.1017 171.763 68.1017 169.885C68.1017 169.858 68.1017 169.824 68.1017 169.797C68.1017 169.776 68.1017 169.756 68.1017 169.736C68.1017 167.885 67.3153 166.224 66.0678 165.058L66.061 165.051C64.8339 163.858 63.1661 163.125 61.3153 163.125C59.4644 163.125 57.7966 163.858 56.5695 165.051L56.5763 165.044Z" fill="black" stroke="black" stroke-width="4"/>
</svg>
