<svg xmlns="http://www.w3.org/2000/svg" width="18" height="18" viewBox="0 0 18 18">
  <g id="Group_23" data-name="Group 23" stroke-width="1" transform="translate(-0.001 0)">
    <g id="Group_22" data-name="Group 22" stroke-width="1" transform="translate(0.001 0)">
      <g id="Group_21" data-name="Group 21" stroke-width="1" transform="translate(0 0)">
        <path id="Path_23" data-name="Path 23" stroke-width="1" d="M16.082,12.635A7.4,7.4,0,0,0,5.611,2.165,7.26,7.26,0,0,0,4.5,11.1a.311.311,0,0,1-.043.371L.678,15.248a1.725,1.725,0,0,0-.264,2.47l.115.115A1.725,1.725,0,0,0,3,17.569L6.767,13.8a.316.316,0,0,1,.379-.051A7.26,7.26,0,0,0,16.082,12.635Zm-9.1-1.367a5.471,5.471,0,1,1,7.736,0A5.477,5.477,0,0,1,6.978,11.268Z" 
		transform="translate(-0.001 0)" fill="#529b97"/>
      </g>
    </g>
  </g>
</svg>
