<svg width="200" height="200" viewBox="0 0 200 200" fill="none" xmlns="http://www.w3.org/2000/svg">
<path d="M99.9985 199.998C99.4205 200.005 98.8403 199.993 98.26 199.983C98.0879 199.991 97.9065 199.986 97.7437 199.994C97.3995 199.994 97.0576 199.977 96.7181 199.944C63.4988 198.868 34.3298 181.513 16.9371 155.626C16.7417 155.411 16.5777 155.166 16.4533 154.9C6.03182 139.093 -0.0289672 120.167 0.000104107 99.8565C0.0384782 73.1458 10.4762 48.0491 29.39 29.1899C47.5608 11.0715 71.469 0.793066 97.003 0.0465141C97.3437 0.0162799 97.7332 0.0372113 98.0309 0C98.2065 0 98.3821 0.00465141 98.5565 0.0139542C99.0856 0.00581426 99.6112 0.00465141 100.14 0.00348856C126.851 0.0406998 151.948 10.4785 170.808 29.3923C189.668 48.3061 200.034 73.433 199.996 100.144C199.967 120.433 193.86 139.326 183.412 155.095C183.278 155.394 183.095 155.665 182.873 155.9C164.881 182.492 134.439 199.996 99.9985 199.998ZM96.6064 194.048C97.1681 194.094 97.7321 194.128 98.2984 194.151C103.825 193.556 109.744 183.835 114.24 167.889C115.23 164.381 116.132 160.647 116.947 156.72L78.6671 156.665C79.4695 160.596 80.3625 164.332 81.3417 167.843C85.6303 183.223 91.2585 192.825 96.6064 194.048ZM122.878 156.728C121.974 161.224 120.959 165.483 119.837 169.466C116.862 180.017 113.329 187.94 109.358 193.066C125.38 189.239 139.377 175.825 148.781 156.765L122.878 156.728ZM51.0528 156.625C59.3242 173.51 71.2051 185.989 84.9209 191.324C81.4649 186.202 78.3752 178.854 75.7402 169.403C74.6297 165.418 73.6261 161.153 72.7365 156.656L51.0528 156.625ZM155.115 156.775C148.763 170.442 140.189 181.648 130.183 189.223C148.206 183.109 163.798 171.677 175.079 156.803L155.115 156.775ZM24.7549 156.587C35.9939 171.493 51.5505 182.97 69.555 189.136C59.5707 181.532 51.0307 170.302 44.7164 156.615L24.7549 156.587ZM157.624 150.964L179.152 150.994C188.143 137.086 193.57 120.669 194.133 103.042L167.009 103.003C166.647 120.477 163.268 136.839 157.624 150.964ZM123.96 150.915L151.431 150.955C157.284 137.042 160.82 120.623 161.195 102.995L128.001 102.947C127.836 120.106 126.438 136.528 123.96 150.915ZM77.5682 150.85L118.061 150.908C120.591 136.622 122.019 120.177 122.186 102.939L73.5808 102.869C73.6982 120.108 75.0797 136.556 77.5682 150.85ZM48.4201 150.808L71.6702 150.841C69.2329 136.444 67.8828 120.022 67.7677 102.861L38.7929 102.819C39.1173 120.448 42.607 136.878 48.4201 150.808ZM20.7 150.767L42.2268 150.798C36.623 136.656 33.2903 120.287 32.9786 102.81L5.85507 102.773C6.36672 120.402 11.7472 136.834 20.7 150.767ZM167.018 97.1889L194.142 97.2273C193.664 80.5601 188.874 64.6279 180.302 50.7178L158.429 50.6876C163.761 64.7581 166.728 80.6404 167.018 97.1889ZM128.009 97.1331L161.203 97.1808C160.899 80.5101 157.779 64.5883 152.188 50.6783L124.352 50.6388C126.635 64.6732 127.898 80.5613 128.009 97.1331ZM73.5901 97.0552L122.195 97.125C122.082 80.481 120.79 64.5732 118.461 50.6306L77.4577 50.5713C75.0878 64.5069 73.7506 80.4113 73.5901 97.0552ZM38.8022 97.0052L67.7758 97.047C67.934 80.4752 69.2433 64.5907 71.5655 50.562L47.9492 50.5283C42.3175 64.422 39.1522 80.3357 38.8022 97.0052ZM5.86204 96.9587L32.9856 96.997C33.3228 80.4496 36.3358 64.5755 41.7081 50.519L19.836 50.4887C11.224 64.3732 6.38882 80.2915 5.86204 96.9587ZM156.043 44.8698L176.407 44.8977C173.5 40.8859 170.257 37.0729 166.692 33.4971C156.376 23.1524 144.08 15.4985 130.654 10.8936C136.96 15.709 142.769 22.0593 147.877 29.8121C150.948 34.4774 153.677 39.5207 156.043 44.8698ZM123.328 44.8222L149.649 44.8605C147.674 40.6812 145.46 36.7182 143.019 33.0111C133.781 18.9812 122.168 9.99239 109.625 6.96084C113.581 12.0995 117.091 20.0325 120.036 30.5912C121.268 35.0123 122.368 39.7754 123.328 44.8222ZM78.5287 44.7582L117.406 44.814C116.528 40.337 115.537 36.1031 114.435 32.1517C109.986 16.1997 104.096 6.4643 98.5728 5.84566C98.0053 5.86659 97.4379 5.89915 96.8727 5.9445C91.5213 7.15503 85.8686 16.7404 81.537 32.1052C80.4242 36.0519 79.4195 40.2847 78.5287 44.7582ZM50.5051 44.7175L72.6063 44.7489C73.5808 39.7044 74.6936 34.9449 75.939 30.5284C78.602 21.0825 81.7126 13.7426 85.1849 8.63069C74.7262 12.6611 65.0885 20.936 57.1683 32.8878C54.717 36.588 52.4913 40.5452 50.5051 44.7175ZM23.7479 44.6803L44.1118 44.7082C46.4933 39.3661 49.2365 34.3321 52.3227 29.676C57.452 21.9361 63.2791 15.6032 69.5992 10.8052C56.1612 15.3729 43.842 22.9908 33.4972 33.3064C29.9203 36.8729 26.6655 40.6754 23.7479 44.6803Z" fill="black"/>
</svg>
