<svg width="200" height="200" viewBox="0 0 200 200" fill="none" xmlns="http://www.w3.org/2000/svg">
<g clip-path="url(#clip0_2542_75)">
<path d="M99.848 7.19805C49.5515 7.19805 9.11284 49.1558 9.11284 100.502C9.11284 151.841 49.5515 193.802 99.848 193.802C150.143 193.802 190.581 151.841 190.581 100.502C190.581 49.1555 150.143 7.19805 99.848 7.19805Z" stroke="black" stroke-width="13.1571"/>
<path d="M158.048 104.57C165.973 101.79 174.61 99.9239 183.987 99.0415C183.962 97.4806 183.898 95.9292 183.794 94.3892C173.795 95.3132 164.935 97.288 157.084 100.032C154.96 90.6924 152.212 82.3562 149.062 74.9273C157.392 71.3479 166.063 66.9365 175.054 61.5484C174.376 60.1602 173.665 58.7915 172.918 57.4474C164.001 62.7978 155.414 67.1564 147.175 70.6875C140.99 57.4156 133.56 47.256 126.373 39.6256C124.202 37.3219 122.015 35.1985 119.832 33.2314C128.016 30.8938 136.742 29.1416 146.01 27.9824C143.998 26.6201 141.929 25.3403 139.802 24.1562C132.505 25.2938 125.694 26.7987 119.333 28.612C120.849 24.1332 122.378 20.2979 123.667 17.3058C122.192 16.858 120.701 16.4483 119.193 16.0826C117.745 19.4376 116.058 23.7021 114.424 28.6641C105.364 21.5008 96.7561 17.0251 90.363 14.3291C87.2486 14.6892 84.185 15.2216 81.1828 15.9222C86.1203 17.44 97.7674 21.7322 110.46 31.4342C93.3482 37.4858 79.8856 45.8937 69.2813 55.2961C62.7111 41.9535 55.6226 32.7067 52.4284 28.8511C51.1787 29.7314 49.9544 30.6466 48.7545 31.5929C51.7069 35.1499 59.1102 44.7096 65.7845 58.5161C59.3493 64.7208 54.076 71.2766 49.7529 77.8194C37.9487 73.8477 28.968 68.6704 23.1695 64.718C22.5335 66.1639 21.9371 67.6318 21.3771 69.1186C27.241 73.0545 35.9107 77.9546 47.2029 81.863C44.5702 86.2212 42.3306 90.5414 40.4468 94.7123C38.0563 100.007 36.1254 105.234 34.5551 110.275C25.5479 95.4299 20.8882 82.015 19.0829 76.0781C18.2965 78.8454 17.6398 81.6697 17.1211 84.5439C20.0008 92.4438 24.9671 103.935 32.8562 116.164C29.6705 128.161 28.5131 138.696 28.1236 145.876C29.4775 148.144 30.927 150.344 32.4715 152.467C32.4817 147.218 32.9468 135.481 36.2804 121.242C37.7167 123.284 39.2273 125.334 40.8322 127.382C48.0408 136.572 57.583 146.31 69.8807 154.596C66.8721 161.833 63.0893 168.992 58.5298 176.062C59.8429 176.826 61.1785 177.554 62.534 178.247C67.1207 171.066 70.7831 163.983 73.6767 157.044C80.7954 161.456 88.7717 165.361 97.6846 168.418C95.711 176.231 94.8548 182.83 94.484 187.044C95.9861 187.141 97.4984 187.198 99.0208 187.213C99.3936 183.234 100.215 177.073 102.023 169.822C113.494 173.278 126.428 175.338 140.975 175.338C141.449 175.338 141.931 175.33 142.409 175.325C144.894 173.821 147.297 172.19 149.611 170.439C132.878 171.379 117.39 169.718 103.194 165.488C104.78 160.012 106.924 154.09 109.832 148.121C114.419 138.706 120.122 130.627 126.892 123.868C134.674 132.949 144.779 140.703 157.141 147.094C157.063 152.864 156.781 158.776 156.291 164.825C157.983 163.247 159.61 161.598 161.173 159.885C161.398 156.279 161.549 152.756 161.627 149.321C163.563 150.231 165.555 151.108 167.591 151.958C168.507 150.679 169.389 149.373 170.238 148.042C167.282 146.827 164.441 145.545 161.699 144.203C161.725 129.39 160.364 116.246 158.048 104.57ZM116.841 36.7224C118.944 38.6122 121.051 40.6513 123.136 42.8645C131.166 51.3902 137.794 61.2858 143.007 72.4165C132.339 76.6885 122.291 79.5557 112.921 81.3477C110.795 65.2134 113.345 49.3598 116.841 36.7224ZM112.326 35.589C108.7 48.697 106.11 65.1707 108.434 82.1374C97.8746 83.8151 88.2327 84.1377 79.6047 83.6032C78.7634 80.0927 77.8085 76.7598 76.7827 73.6338C75.113 68.5418 73.2191 63.7948 71.2349 59.4218C82.6232 49.0595 96.3375 41.104 112.326 35.589ZM67.7426 62.7499C69.4482 66.6033 71.07 70.7361 72.5084 75.1223C73.3955 77.8274 74.1726 80.5258 74.866 83.219C68.8545 82.6097 63.3845 81.6022 58.5057 80.3849C57.0338 80.0182 55.6032 79.6236 54.2009 79.2149C58.2184 73.2195 62.7399 67.7367 67.7426 62.7499ZM71.5433 150.355C61.5998 143.491 52.557 134.904 44.4504 124.595C42.0341 121.522 39.8189 118.429 37.7866 115.367C39.4776 109.316 41.6969 102.94 44.6146 96.5053C46.7168 91.8698 49.0554 87.4706 51.6081 83.2882C53.4101 83.8346 55.2674 84.3562 57.1874 84.84C62.7413 86.2394 69.0371 87.3724 75.9967 87.9898C80.5756 109.249 79.0789 130.103 71.5433 150.355ZM105.72 146.193C102.716 152.385 100.5 158.479 98.858 164.107C90.5527 161.27 82.7073 157.524 75.3359 152.864C84.4479 128.631 84.2267 106.362 80.6329 88.311C82.8145 88.4243 85.0365 88.5002 87.3374 88.5002C94.118 88.5002 101.412 87.9733 109.178 86.7358C109.972 90.9067 111.075 95.0902 112.56 99.245C115.296 106.9 119.137 113.954 124.063 120.393C115.661 128.665 109.788 137.809 105.72 146.193ZM127.431 117.243C122.888 111.258 119.334 104.732 116.804 97.6641C115.418 93.788 114.383 89.8702 113.644 85.951C123.381 84.094 133.821 81.1107 144.894 76.6563C148.196 84.4328 150.837 92.7759 152.812 101.65C142.637 105.758 134.278 111.187 127.431 117.243ZM130.231 120.71C137.079 114.619 144.932 109.776 153.753 106.175C155.906 117.304 157.042 129.224 157.153 141.867C146.213 135.945 137.219 128.883 130.231 120.71Z" fill="#A3D5E0"/>
<path d="M155.307 96.2734C151.673 96.2734 148.727 99.3085 148.727 103.055C148.727 106.801 151.673 109.837 155.307 109.837C158.941 109.837 161.888 106.801 161.888 103.055C161.888 99.3082 158.941 96.2734 155.307 96.2734Z" fill="#BAEBF4" stroke="black" stroke-width="8.09669"/>
<path d="M126.913 113.324C123.279 113.324 120.332 116.36 120.332 120.106C120.332 123.853 123.279 126.888 126.913 126.888C130.547 126.888 133.493 123.853 133.493 120.106C133.493 116.36 130.547 113.324 126.913 113.324Z" fill="#BAEBF4" stroke="black" stroke-width="8.09669"/>
<path d="M100.217 160.603C96.5822 160.603 93.6367 163.638 93.6367 167.384C93.6367 171.131 96.5826 174.166 100.217 174.166C103.851 174.166 106.798 171.13 106.798 167.384C106.798 163.638 103.851 160.603 100.217 160.603Z" fill="#BAEBF4" stroke="black" stroke-width="8.09669"/>
<path d="M72.5732 146.652C68.9394 146.652 65.9922 149.687 65.9922 153.433C65.9922 157.18 68.9394 160.215 72.5732 160.215C76.2074 160.215 79.1543 157.18 79.1543 153.433C79.1546 149.687 76.2074 146.652 72.5732 146.652Z" fill="#BAEBF4" stroke="black" stroke-width="8.09669"/>
<path d="M35.1556 108.868C31.5208 108.868 28.5742 111.903 28.5742 115.649C28.5742 119.396 31.5211 122.431 35.1556 122.431C38.7891 122.431 41.736 119.395 41.736 115.649C41.736 111.903 38.7891 108.868 35.1556 108.868Z" fill="#BAEBF4" stroke="black" stroke-width="8.09669"/>
<path d="M50.7718 73.603C47.138 73.603 44.1914 76.6385 44.1914 80.3846C44.1914 84.1314 47.1383 87.1665 50.7718 87.1665C54.4066 87.1665 57.3528 84.1311 57.3528 80.3846C57.3528 76.6381 54.4063 73.603 50.7718 73.603Z" fill="#BAEBF4" stroke="black" stroke-width="8.09669"/>
<path d="M78.2103 79.2222C74.5761 79.2222 71.6289 82.2569 71.6289 86.0037C71.6289 89.7502 74.5761 92.7853 78.2103 92.7853C81.8441 92.7853 84.7907 89.7502 84.7907 86.0037C84.791 82.2569 81.8441 79.2222 78.2103 79.2222Z" fill="#BAEBF4" stroke="black" stroke-width="8.09669"/>
<path d="M68.2487 51.7075C64.6142 51.7075 61.668 54.7426 61.668 58.4891C61.668 62.2356 64.6145 65.271 68.2487 65.271C71.8825 65.271 74.829 62.2356 74.829 58.4891C74.829 54.7426 71.8825 51.7075 68.2487 51.7075Z" fill="#BAEBF4" stroke="black" stroke-width="8.09669"/>
<path d="M115.821 23.0304C111.252 23.0304 107.547 26.845 107.547 31.556C107.547 36.2674 111.252 40.0813 115.821 40.0813C120.389 40.0813 124.093 36.2674 124.093 31.556C124.093 26.845 120.389 23.0304 115.821 23.0304Z" fill="#BAEBF4" stroke="black" stroke-width="8.09669"/>
<path d="M110.932 77.6719C107.297 77.6719 104.352 80.7066 104.352 84.4531C104.352 88.1999 107.298 91.2347 110.932 91.2347C114.566 91.2347 117.512 88.1999 117.512 84.4531C117.512 80.7066 114.566 77.6719 110.932 77.6719Z" fill="#BAEBF4" stroke="black" stroke-width="8.09669"/>
<path d="M146.471 66.8214C142.837 66.8214 139.891 69.8565 139.891 73.603C139.891 77.3498 142.837 80.3845 146.471 80.3845C150.105 80.3845 153.052 77.3498 153.052 73.603C153.052 69.8561 150.105 66.8214 146.471 66.8214Z" fill="#BAEBF4" stroke="black" stroke-width="8.09669"/>
<path d="M159.244 138.126C155.61 138.126 152.664 141.161 152.664 144.908C152.664 148.654 155.611 151.689 159.244 151.689C162.879 151.689 165.825 148.654 165.825 144.908C165.825 141.161 162.879 138.126 159.244 138.126Z" fill="#BAEBF4" stroke="black" stroke-width="8.09669"/>
</g>
<defs>
<clipPath id="clip0_2542_75">
<rect width="200" height="200" fill="white"/>
</clipPath>
</defs>
</svg>
