<svg width="22" height="20" viewBox="0 0 22 20" fill="none" xmlns="http://www.w3.org/2000/svg">
    <path  stroke="#D40404" stroke-width="2" stroke-linecap="round" stroke-linejoin="round" d="M19.3095 3.14008L19.3098 3.14033C19.7511 3.58143 20.1012 4.10517 20.34 4.68161C20.5789 5.25805 20.7018 5.87591 20.7018 6.49987C20.7018 7.12384 20.5789 7.74169 20.34 8.31813C20.1012 8.89458 19.7511 9.41831 19.3098 9.85942L19.3097 9.85954L18.2497 10.9195L11 18.1692L3.75033 10.9195L2.69033 9.85954C1.79929 8.9685 1.29871 7.75999 1.29871 6.49987C1.29871 5.23975 1.79929 4.03124 2.69033 3.1402C3.58137 2.24916 4.78988 1.74858 6.05 1.74858C7.31012 1.74858 8.51863 2.24916 9.40967 3.1402L10.4697 4.2002C10.7626 4.4931 11.2374 4.4931 11.5303 4.2002L12.5903 3.1402L12.5905 3.14008C13.0316 2.69876 13.5553 2.34868 14.1317 2.10983C14.7082 1.87098 15.326 1.74805 15.95 1.74805C16.574 1.74805 17.1918 1.87098 17.7683 2.10983C18.3447 2.34868 18.8684 2.69876 19.3095 3.14008Z"></path>
</svg>