<svg width="24" height="20" xmlns="http://www.w3.org/2000/svg" data-name="Layer 1">
 <title>working-hours</title>

 <g>
  <title>Layer 1</title>
  <path stroke="null" id="svg_1" d="m9.72842,18.36436a0.54981,0.54981 0 0 1 0,1.09771a9.73104,9.73104 0 1 1 8.28517,-14.83912l0.11605,-0.57074a0.52508,0.52508 0 1 1 1.02923,0.19025l-0.38049,1.87391a0.52317,0.52317 0 0 1 -0.62781,0.39381l-1.83396,-0.42234a0.52317,0.52317 0 0 1 0.2321,-1.01971l0.52508,0.12176a8.63713,8.63713 0 1 0 -7.34536,13.17447zm3.75734,-8.97006a0.42995,0.42995 0 0 1 0,0.67347l-0.9322,0.71913a0.42234,0.42234 0 0 1 -0.64683,-0.49844l-1.21757,0a1.11103,1.11103 0 1 1 -1.57903,-1.48011l0.01902,-1.97284a0.42044,0.42044 0 0 1 -0.50034,-0.64874l0.74005,-0.91698a0.42044,0.42044 0 0 1 0.3139,-0.156l0,0a0.41854,0.41854 0 0 1 0.34815,0.17312l0.7001,0.95123a0.42234,0.42234 0 0 1 -0.49273,0.64303l-0.01332,1.8625a1.11103,1.11103 0 0 1 0.46039,0.43376l1.21757,0a0.42234,0.42234 0 0 1 0.65064,-0.50225l0.9322,0.71913zm2.19543,5.31164l0.97025,2.54738l0.48893,-1.38879l-0.23971,-0.26444c-0.17883,-0.26254 -0.11795,-0.57074 0.21498,-0.61449a2.26962,2.26962 0 0 1 0.36147,0a1.97094,1.97094 0 0 1 0.39761,0.01522c0.3082,0.06849 0.34054,0.36717 0.19025,0.60688l-0.23971,0.26064l0.48893,1.38879l0.87703,-2.54738c0.63352,0.57074 2.33811,0.68488 3.04392,1.07298c0.96644,0.5422 0.93981,1.40781 1.14147,2.37616c-1.92718,1.92148 -9.87182,2.00709 -11.88271,-0.0038c0.21117,-0.95123 0.19025,-1.84347 1.15289,-2.37616c0.8561,-0.47752 2.3324,-0.44137 3.04392,-1.07298l-0.00951,0zm-0.17883,-1.71221a0.43376,0.43376 0 0 1 -0.23781,-0.05707a0.55171,0.55171 0 0 1 -0.22639,-0.26825c-0.10463,-0.234 -0.19025,-0.8504 0.0761,-1.02732l-0.04946,-0.03234l0,-0.06849c0,-0.12366 -0.01332,-0.27395 -0.01522,-0.43186c0,-0.57074 -0.02093,-1.28225 -0.50034,-1.42303l-0.20546,-0.06088l0.13507,-0.16171a7.71254,7.71254 0 0 1 1.19854,-1.18523a3.07626,3.07626 0 0 1 1.38879,-0.65635a1.70079,1.70079 0 0 1 1.34313,0.36908a2.6368,2.6368 0 0 1 0.36337,0.35386a1.53908,1.53908 0 0 1 1.08059,0.61639a2.07748,2.07748 0 0 1 0.35005,0.69059a2.26962,2.26962 0 0 1 0.09512,0.78381a1.85489,1.85489 0 0 1 -0.56122,1.27084a0.41093,0.41093 0 0 1 0.17503,0.04376a0.41854,0.41854 0 0 1 0.1541,0.51937c-0.05137,0.1579 -0.11795,0.34244 -0.18073,0.49654c-0.0742,0.20737 -0.19025,0.24732 -0.39951,0.22449c-0.47942,2.0927 -3.37685,2.16879 -3.98373,0l0,0.0038zm-9.75957,-9.23259a0.468,0.468 0 1 1 0.81044,-0.4661l0.34815,0.60498a0.468,0.468 0 1 1 -0.81615,0.47561l-0.34244,-0.61449zm-2.45226,2.7947a0.46991,0.46991 0 0 1 0.46991,-0.81235l0.61259,0.34434a0.468,0.468 0 1 1 -0.468,0.81044l-0.60688,-0.34815l-0.00761,0.00571zm-0.72483,3.64319a0.468,0.468 0 1 1 0,-0.93601l0.7001,0a0.468,0.468 0 0 1 0,0.93601l-0.7001,0zm1.19284,3.51763a0.468,0.468 0 0 1 -0.4661,-0.81044l0.60498,-0.35005a0.468,0.468 0 1 1 0.47561,0.81044l-0.61449,0.35005zm9.14508,-10.42353a0.468,0.468 0 0 1 0.81044,0.46991l-0.35005,0.61259a0.468,0.468 0 1 1 -0.81044,-0.47561l0.35005,-0.60688zm-6.35038,12.87769a0.468,0.468 0 0 1 -0.81235,-0.468l0.34434,-0.61069a0.468,0.468 0 0 1 0.81044,0.46991l-0.34244,0.60878zm2.70719,-13.60252a0.468,0.468 0 0 1 0.9341,0l0,0.7001a0.468,0.468 0 1 1 -0.9341,0l0,-0.7001zm0.93601,14.32355a0.468,0.468 0 1 1 -0.93601,0l0,-0.6982a0.468,0.468 0 1 1 0.93601,0l0,0.6982z"/>
 </g>
</svg>